<svg xmlns="http://www.w3.org/2000/svg" viewBox="0 0 600 160" width="100%" height="100%">
  <defs>
    <!-- Fine Stipple Noise Filter -->
    <filter id="stipple-grain" x="0%" y="0%" width="100%" height="100%">
      <feTurbulence type="fractalNoise" baseFrequency="0.85" numOctaves="4" result="noise" />
      <feColorMatrix type="matrix" values="1 0 0 0 0  0 1 0 0 0  0 0 1 0 0  0 0 0 0.35 0" />
      <feComposite operator="in" in2="SourceGraphic" />
    </filter>

    <radialGradient id="sigilGlow" cx="50%" cy="50%" r="50%">
      <stop offset="0%" stop-color="#8b0000" stop-opacity="0.6" />
      <stop offset="60%" stop-color="#120003" stop-opacity="0.2" />
      <stop offset="100%" stop-color="#000000" stop-opacity="0" />
    </radialGradient>

    <!-- Stipple Dot Pattern -->
    <pattern id="stippleDots" x="0" y="0" width="6" height="6" patternUnits="userSpaceOnUse">
      <circle cx="1" cy="1" r="0.6" fill="#d4af37" opacity="0.4"/>
      <circle cx="4" cy="3" r="0.8" fill="#e0e0e0" opacity="0.6"/>
      <circle cx="2" cy="5" r="0.5" fill="#8b0000" opacity="0.5"/>
    </pattern>
  </defs>

  <!-- Background Aura -->
  <circle cx="80" cy="80" r="70" fill="url(#sigilGlow)" />

  <!-- Outer Occult Stipple Ring -->
  <circle cx="80" cy="80" r="64" fill="none" stroke="#d4af37" stroke-width="1.5" stroke-dasharray="2, 4, 1, 3" opacity="0.8"/>
  <circle cx="80" cy="80" r="58" fill="none" stroke="#8b0000" stroke-width="1" stroke-dasharray="1, 2" opacity="0.7"/>
  <circle cx="80" cy="80" r="52" fill="none" stroke="#e0e0e0" stroke-width="0.75" stroke-dasharray="4, 6"/>

  <!-- Center Sigil Skull & Ink Drip motif -->
  <g transform="translate(80, 80) scale(0.85)">
    <!-- Skull silhouette -->
    <path d="M-22,-15 C-22,-35 22,-35 22,-15 C22,-5 18,5 14,12 C12,16 10,22 10,28 L-10,28 C-10,22 -12,16 -14,12 C-18,5 -22,-5 -22,-15 Z" fill="#111116" stroke="#d4af37" stroke-width="2"/>
    <!-- Eye Sockets -->
    <path d="M-14,-10 C-14,-16 -6,-16 -6,-10 C-6,-4 -14,-4 -14,-10 Z" fill="#8b0000"/>
    <path d="M6,-10 C6,-16 14,-16 14,-10 C14,-4 6,-4 6,-10 Z" fill="#8b0000"/>
    <!-- Nasal Cavity -->
    <polygon points="0,-2 -4,4 4,4" fill="#d4af37"/>
    <!-- Stipple Teeth -->
    <line x1="-8" y1="20" x2="-8" y2="28" stroke="#d4af37" stroke-width="1.5"/>
    <line x1="-3" y1="20" x2="-3" y2="28" stroke="#d4af37" stroke-width="1.5"/>
    <line x1="3" y1="20" x2="3" y2="28" stroke="#d4af37" stroke-width="1.5"/>
    <line x1="8" y1="20" x2="8" y2="28" stroke="#d4af37" stroke-width="1.5"/>

    <!-- Ink Drips extending downwards -->
    <path d="M0,28 Q-2,45 0,55 Q2,45 0,28" fill="#8b0000"/>
    <path d="M-8,28 Q-9,40 -8,48 Q-7,40 -8,28" fill="#d4af37" opacity="0.8"/>
    <path d="M8,28 Q9,40 8,48 Q7,40 8,28" fill="#d4af37" opacity="0.8"/>

    <!-- Micro Stipple Particles -->
    <circle cx="-18" cy="-5" r="1" fill="#d4af37"/>
    <circle cx="-25" cy="10" r="0.8" fill="#8b0000"/>
    <circle cx="20" cy="-8" r="1.2" fill="#d4af37"/>
    <circle cx="26" cy="15" r="0.7" fill="#e0e0e0"/>
    <circle cx="0" cy="-38" r="1.5" fill="#8b0000"/>
  </g>

  <!-- Typography: INKROT HOLLER -->
  <text x="180" y="72" font-family="'Cinzel', 'Times New Roman', serif" font-size="42" font-weight="700" letter-spacing="7" fill="#f0ece1">
    INKROT
  </text>
  <text x="405" y="72" font-family="'Cinzel', 'Times New Roman', serif" font-size="42" font-weight="700" letter-spacing="7" fill="#8b0000">
    HOLLER
  </text>

  <!-- Subtext: AUGUST L. SOLOMAN -->
  <text x="182" y="105" font-family="'Inter', sans-serif" font-size="13" font-weight="500" letter-spacing="6" fill="#a09a8e">
    ARTIST: AUGUST L. SOLOMAN
  </text>
  <text x="182" y="125" font-family="'Inter', sans-serif" font-size="10" font-weight="400" letter-spacing="4" fill="#6e685e">
    FINE STIPPLE INK • OUTRÉ MACABRE VISIONS
  </text>

  <!-- Decorative Separator Line with Central Stipple Diamond -->
  <line x1="180" y1="138" x2="570" y2="138" stroke="#332e2b" stroke-width="1"/>
  <line x1="180" y1="138" x2="320" y2="138" stroke="#8b0000" stroke-width="1.5"/>
  <polygon points="330,138 334,134 338,138 334,142" fill="#d4af37"/>
</svg>